<mxfile host="app.diagrams.net" modified="2021-02-17T00:35:01.636Z" agent="5.0 (Windows NT 10.0; Win64; x64) AppleWebKit/537.36 (KHTML, like Gecko) Chrome/88.0.4324.150 Safari/537.36" etag="tK4lIdGL7gcTy45WFSGi" version="14.1.9" type="github">
  <diagram id="bpvqkjl4aAlvQeULc8f-" name="Page-1">
    <mxGraphModel dx="1454" dy="1143" grid="1" gridSize="10" guides="1" tooltips="1" connect="1" arrows="1" fold="1" page="1" pageScale="1" pageWidth="1920" pageHeight="1200" math="0" shadow="0">
      <root>
        <mxCell id="0" />
        <mxCell id="1" parent="0" />
        <mxCell id="TJ2ZDpxeR_JlbvTuaroh-30" style="edgeStyle=orthogonalEdgeStyle;rounded=0;orthogonalLoop=1;jettySize=auto;html=1;entryX=0.5;entryY=0;entryDx=0;entryDy=0;" edge="1" parent="1" source="TJ2ZDpxeR_JlbvTuaroh-1" target="TJ2ZDpxeR_JlbvTuaroh-3">
          <mxGeometry relative="1" as="geometry" />
        </mxCell>
        <mxCell id="TJ2ZDpxeR_JlbvTuaroh-38" style="edgeStyle=orthogonalEdgeStyle;rounded=0;orthogonalLoop=1;jettySize=auto;html=1;endArrow=circlePlus;endFill=0;" edge="1" parent="1" source="TJ2ZDpxeR_JlbvTuaroh-1">
          <mxGeometry relative="1" as="geometry">
            <mxPoint x="310" y="270" as="targetPoint" />
          </mxGeometry>
        </mxCell>
        <mxCell id="TJ2ZDpxeR_JlbvTuaroh-1" value="Flashback" style="rounded=0;whiteSpace=wrap;html=1;direction=south;" vertex="1" parent="1">
          <mxGeometry x="280" y="440" width="60" height="120" as="geometry" />
        </mxCell>
        <mxCell id="TJ2ZDpxeR_JlbvTuaroh-17" value="" style="edgeStyle=orthogonalEdgeStyle;rounded=0;orthogonalLoop=1;jettySize=auto;html=1;" edge="1" parent="1" source="TJ2ZDpxeR_JlbvTuaroh-2" target="TJ2ZDpxeR_JlbvTuaroh-7">
          <mxGeometry relative="1" as="geometry" />
        </mxCell>
        <mxCell id="TJ2ZDpxeR_JlbvTuaroh-33" style="edgeStyle=orthogonalEdgeStyle;rounded=0;orthogonalLoop=1;jettySize=auto;html=1;endArrow=circlePlus;endFill=0;" edge="1" parent="1" source="TJ2ZDpxeR_JlbvTuaroh-2">
          <mxGeometry relative="1" as="geometry">
            <mxPoint x="790" y="270" as="targetPoint" />
            <Array as="points">
              <mxPoint x="790" y="420" />
              <mxPoint x="790" y="420" />
            </Array>
          </mxGeometry>
        </mxCell>
        <mxCell id="TJ2ZDpxeR_JlbvTuaroh-2" value="Tube&lt;br&gt;Screamer" style="rounded=0;whiteSpace=wrap;html=1;direction=south;" vertex="1" parent="1">
          <mxGeometry x="760" y="440" width="60" height="120" as="geometry" />
        </mxCell>
        <mxCell id="TJ2ZDpxeR_JlbvTuaroh-40" style="edgeStyle=orthogonalEdgeStyle;rounded=0;orthogonalLoop=1;jettySize=auto;html=1;endArrow=circlePlus;endFill=0;" edge="1" parent="1" source="TJ2ZDpxeR_JlbvTuaroh-3">
          <mxGeometry relative="1" as="geometry">
            <mxPoint x="185" y="270" as="targetPoint" />
          </mxGeometry>
        </mxCell>
        <mxCell id="TJ2ZDpxeR_JlbvTuaroh-43" style="edgeStyle=orthogonalEdgeStyle;rounded=0;orthogonalLoop=1;jettySize=auto;html=1;entryX=0;entryY=0.5;entryDx=0;entryDy=0;endArrow=classic;endFill=1;" edge="1" parent="1" source="TJ2ZDpxeR_JlbvTuaroh-3" target="TJ2ZDpxeR_JlbvTuaroh-12">
          <mxGeometry relative="1" as="geometry">
            <Array as="points">
              <mxPoint x="100" y="500" />
              <mxPoint x="100" y="120" />
            </Array>
          </mxGeometry>
        </mxCell>
        <mxCell id="TJ2ZDpxeR_JlbvTuaroh-3" value="BLooper" style="rounded=0;whiteSpace=wrap;html=1;direction=south;" vertex="1" parent="1">
          <mxGeometry x="140" y="440" width="90" height="120" as="geometry" />
        </mxCell>
        <mxCell id="TJ2ZDpxeR_JlbvTuaroh-25" style="edgeStyle=orthogonalEdgeStyle;rounded=0;orthogonalLoop=1;jettySize=auto;html=1;entryX=0.5;entryY=0;entryDx=0;entryDy=0;" edge="1" parent="1" source="TJ2ZDpxeR_JlbvTuaroh-4" target="TJ2ZDpxeR_JlbvTuaroh-5">
          <mxGeometry relative="1" as="geometry">
            <mxPoint x="310" y="660" as="targetPoint" />
            <Array as="points">
              <mxPoint x="430" y="370" />
              <mxPoint x="430" y="370" />
            </Array>
          </mxGeometry>
        </mxCell>
        <mxCell id="TJ2ZDpxeR_JlbvTuaroh-26" style="edgeStyle=orthogonalEdgeStyle;rounded=0;orthogonalLoop=1;jettySize=auto;html=1;entryX=0.5;entryY=1;entryDx=0;entryDy=0;exitX=0.5;exitY=1;exitDx=0;exitDy=0;" edge="1" parent="1" source="TJ2ZDpxeR_JlbvTuaroh-5" target="TJ2ZDpxeR_JlbvTuaroh-10">
          <mxGeometry relative="1" as="geometry">
            <Array as="points">
              <mxPoint x="340" y="370" />
              <mxPoint x="340" y="240" />
            </Array>
          </mxGeometry>
        </mxCell>
        <mxCell id="TJ2ZDpxeR_JlbvTuaroh-36" style="edgeStyle=orthogonalEdgeStyle;rounded=0;orthogonalLoop=1;jettySize=auto;html=1;exitX=0;exitY=0.5;exitDx=0;exitDy=0;endArrow=circlePlus;endFill=0;" edge="1" parent="1" source="TJ2ZDpxeR_JlbvTuaroh-4">
          <mxGeometry relative="1" as="geometry">
            <mxPoint x="490" y="270" as="targetPoint" />
          </mxGeometry>
        </mxCell>
        <mxCell id="TJ2ZDpxeR_JlbvTuaroh-4" value="SubNup" style="rounded=0;whiteSpace=wrap;html=1;direction=south;" vertex="1" parent="1">
          <mxGeometry x="460" y="310" width="60" height="120" as="geometry" />
        </mxCell>
        <mxCell id="TJ2ZDpxeR_JlbvTuaroh-28" style="edgeStyle=orthogonalEdgeStyle;rounded=0;orthogonalLoop=1;jettySize=auto;html=1;entryX=0.25;entryY=1;entryDx=0;entryDy=0;" edge="1" parent="1" source="TJ2ZDpxeR_JlbvTuaroh-5" target="TJ2ZDpxeR_JlbvTuaroh-13">
          <mxGeometry relative="1" as="geometry" />
        </mxCell>
        <mxCell id="TJ2ZDpxeR_JlbvTuaroh-37" style="edgeStyle=orthogonalEdgeStyle;rounded=0;orthogonalLoop=1;jettySize=auto;html=1;endArrow=circlePlus;endFill=0;" edge="1" parent="1" source="TJ2ZDpxeR_JlbvTuaroh-5">
          <mxGeometry relative="1" as="geometry">
            <mxPoint x="390" y="270" as="targetPoint" />
          </mxGeometry>
        </mxCell>
        <mxCell id="TJ2ZDpxeR_JlbvTuaroh-5" value="Chorus" style="rounded=0;whiteSpace=wrap;html=1;direction=south;" vertex="1" parent="1">
          <mxGeometry x="360" y="310" width="60" height="120" as="geometry" />
        </mxCell>
        <mxCell id="TJ2ZDpxeR_JlbvTuaroh-21" style="edgeStyle=orthogonalEdgeStyle;rounded=0;orthogonalLoop=1;jettySize=auto;html=1;entryX=0.75;entryY=0;entryDx=0;entryDy=0;" edge="1" parent="1" source="TJ2ZDpxeR_JlbvTuaroh-6" target="TJ2ZDpxeR_JlbvTuaroh-13">
          <mxGeometry relative="1" as="geometry">
            <Array as="points">
              <mxPoint x="510" y="525" />
              <mxPoint x="510" y="525" />
            </Array>
          </mxGeometry>
        </mxCell>
        <mxCell id="TJ2ZDpxeR_JlbvTuaroh-35" style="edgeStyle=orthogonalEdgeStyle;rounded=0;orthogonalLoop=1;jettySize=auto;html=1;endArrow=circlePlus;endFill=0;" edge="1" parent="1" source="TJ2ZDpxeR_JlbvTuaroh-6">
          <mxGeometry relative="1" as="geometry">
            <mxPoint x="590" y="270" as="targetPoint" />
          </mxGeometry>
        </mxCell>
        <mxCell id="TJ2ZDpxeR_JlbvTuaroh-6" value="HComp" style="rounded=0;whiteSpace=wrap;html=1;direction=south;" vertex="1" parent="1">
          <mxGeometry x="560" y="440" width="60" height="120" as="geometry" />
        </mxCell>
        <mxCell id="TJ2ZDpxeR_JlbvTuaroh-34" style="edgeStyle=orthogonalEdgeStyle;rounded=0;orthogonalLoop=1;jettySize=auto;html=1;endArrow=circlePlus;endFill=0;" edge="1" parent="1" source="TJ2ZDpxeR_JlbvTuaroh-7">
          <mxGeometry relative="1" as="geometry">
            <mxPoint x="690" y="270" as="targetPoint" />
          </mxGeometry>
        </mxCell>
        <mxCell id="TJ2ZDpxeR_JlbvTuaroh-7" value="DMatter" style="rounded=0;whiteSpace=wrap;html=1;direction=south;" vertex="1" parent="1">
          <mxGeometry x="660" y="440" width="60" height="120" as="geometry" />
        </mxCell>
        <mxCell id="TJ2ZDpxeR_JlbvTuaroh-20" style="edgeStyle=orthogonalEdgeStyle;rounded=0;orthogonalLoop=1;jettySize=auto;html=1;entryX=0.5;entryY=0;entryDx=0;entryDy=0;" edge="1" parent="1" source="TJ2ZDpxeR_JlbvTuaroh-8" target="TJ2ZDpxeR_JlbvTuaroh-2">
          <mxGeometry relative="1" as="geometry">
            <mxPoint x="740" y="525" as="targetPoint" />
            <Array as="points">
              <mxPoint x="840" y="500" />
              <mxPoint x="840" y="500" />
            </Array>
          </mxGeometry>
        </mxCell>
        <mxCell id="TJ2ZDpxeR_JlbvTuaroh-8" value="Volume" style="rounded=0;whiteSpace=wrap;html=1;direction=south;" vertex="1" parent="1">
          <mxGeometry x="860" y="440" width="60" height="120" as="geometry" />
        </mxCell>
        <mxCell id="TJ2ZDpxeR_JlbvTuaroh-41" style="edgeStyle=orthogonalEdgeStyle;rounded=0;orthogonalLoop=1;jettySize=auto;html=1;endArrow=circlePlus;endFill=0;" edge="1" parent="1" source="TJ2ZDpxeR_JlbvTuaroh-10">
          <mxGeometry relative="1" as="geometry">
            <mxPoint x="540" y="290" as="targetPoint" />
          </mxGeometry>
        </mxCell>
        <mxCell id="TJ2ZDpxeR_JlbvTuaroh-42" style="edgeStyle=orthogonalEdgeStyle;rounded=0;orthogonalLoop=1;jettySize=auto;html=1;entryX=0.5;entryY=1;entryDx=0;entryDy=0;endArrow=classic;endFill=1;" edge="1" parent="1" source="TJ2ZDpxeR_JlbvTuaroh-10" target="TJ2ZDpxeR_JlbvTuaroh-11">
          <mxGeometry relative="1" as="geometry" />
        </mxCell>
        <mxCell id="TJ2ZDpxeR_JlbvTuaroh-10" value="DiBox" style="rounded=0;whiteSpace=wrap;html=1;direction=south;" vertex="1" parent="1">
          <mxGeometry x="410" y="210" width="60" height="60" as="geometry" />
        </mxCell>
        <mxCell id="TJ2ZDpxeR_JlbvTuaroh-11" value="Line" style="rounded=1;whiteSpace=wrap;html=1;" vertex="1" parent="1">
          <mxGeometry x="390" y="60" width="100" height="100" as="geometry" />
        </mxCell>
        <mxCell id="TJ2ZDpxeR_JlbvTuaroh-12" value="&amp;nbsp; &amp;nbsp; &amp;nbsp;GCombo" style="shape=internalStorage;whiteSpace=wrap;html=1;backgroundOutline=1;" vertex="1" parent="1">
          <mxGeometry x="160" y="80" width="80" height="80" as="geometry" />
        </mxCell>
        <mxCell id="TJ2ZDpxeR_JlbvTuaroh-24" style="edgeStyle=orthogonalEdgeStyle;rounded=0;orthogonalLoop=1;jettySize=auto;html=1;entryX=0.5;entryY=0;entryDx=0;entryDy=0;" edge="1" parent="1" source="TJ2ZDpxeR_JlbvTuaroh-13" target="TJ2ZDpxeR_JlbvTuaroh-4">
          <mxGeometry relative="1" as="geometry">
            <Array as="points">
              <mxPoint x="540" y="490" />
              <mxPoint x="540" y="370" />
            </Array>
          </mxGeometry>
        </mxCell>
        <mxCell id="TJ2ZDpxeR_JlbvTuaroh-29" style="edgeStyle=orthogonalEdgeStyle;rounded=0;orthogonalLoop=1;jettySize=auto;html=1;entryX=0.683;entryY=-0.033;entryDx=0;entryDy=0;entryPerimeter=0;" edge="1" parent="1" source="TJ2ZDpxeR_JlbvTuaroh-13" target="TJ2ZDpxeR_JlbvTuaroh-1">
          <mxGeometry relative="1" as="geometry">
            <mxPoint x="360" y="510" as="targetPoint" />
            <Array as="points">
              <mxPoint x="400" y="522" />
              <mxPoint x="400" y="522" />
            </Array>
          </mxGeometry>
        </mxCell>
        <mxCell id="TJ2ZDpxeR_JlbvTuaroh-13" value="Send&lt;br&gt;Return" style="rounded=0;whiteSpace=wrap;html=1;direction=south;" vertex="1" parent="1">
          <mxGeometry x="420" y="480" width="60" height="60" as="geometry" />
        </mxCell>
        <mxCell id="TJ2ZDpxeR_JlbvTuaroh-16" value="" style="edgeStyle=orthogonalEdgeStyle;rounded=0;orthogonalLoop=1;jettySize=auto;html=1;exitX=0.5;exitY=1;exitDx=0;exitDy=0;" edge="1" parent="1" source="TJ2ZDpxeR_JlbvTuaroh-7" target="TJ2ZDpxeR_JlbvTuaroh-6">
          <mxGeometry relative="1" as="geometry">
            <mxPoint x="680" y="520" as="sourcePoint" />
            <Array as="points">
              <mxPoint x="640" y="500" />
              <mxPoint x="640" y="500" />
            </Array>
          </mxGeometry>
        </mxCell>
        <mxCell id="TJ2ZDpxeR_JlbvTuaroh-44" style="edgeStyle=orthogonalEdgeStyle;rounded=0;orthogonalLoop=1;jettySize=auto;html=1;entryX=0.5;entryY=0;entryDx=0;entryDy=0;" edge="1" parent="1" source="TJ2ZDpxeR_JlbvTuaroh-46" target="TJ2ZDpxeR_JlbvTuaroh-52">
          <mxGeometry relative="1" as="geometry" />
        </mxCell>
        <mxCell id="TJ2ZDpxeR_JlbvTuaroh-45" style="edgeStyle=orthogonalEdgeStyle;rounded=0;orthogonalLoop=1;jettySize=auto;html=1;endArrow=circlePlus;endFill=0;" edge="1" parent="1" source="TJ2ZDpxeR_JlbvTuaroh-46">
          <mxGeometry relative="1" as="geometry">
            <mxPoint x="310" y="830" as="targetPoint" />
          </mxGeometry>
        </mxCell>
        <mxCell id="TJ2ZDpxeR_JlbvTuaroh-46" value="Flashback" style="rounded=0;whiteSpace=wrap;html=1;direction=south;" vertex="1" parent="1">
          <mxGeometry x="280" y="1000" width="60" height="120" as="geometry" />
        </mxCell>
        <mxCell id="TJ2ZDpxeR_JlbvTuaroh-47" value="" style="edgeStyle=orthogonalEdgeStyle;rounded=0;orthogonalLoop=1;jettySize=auto;html=1;" edge="1" parent="1" source="TJ2ZDpxeR_JlbvTuaroh-49" target="TJ2ZDpxeR_JlbvTuaroh-65">
          <mxGeometry relative="1" as="geometry" />
        </mxCell>
        <mxCell id="TJ2ZDpxeR_JlbvTuaroh-48" style="edgeStyle=orthogonalEdgeStyle;rounded=0;orthogonalLoop=1;jettySize=auto;html=1;endArrow=circlePlus;endFill=0;" edge="1" parent="1" source="TJ2ZDpxeR_JlbvTuaroh-49">
          <mxGeometry relative="1" as="geometry">
            <mxPoint x="790" y="830" as="targetPoint" />
            <Array as="points">
              <mxPoint x="790" y="830" />
            </Array>
          </mxGeometry>
        </mxCell>
        <mxCell id="TJ2ZDpxeR_JlbvTuaroh-49" value="TScreamer" style="rounded=0;whiteSpace=wrap;html=1;direction=south;" vertex="1" parent="1">
          <mxGeometry x="760" y="1000" width="60" height="120" as="geometry" />
        </mxCell>
        <mxCell id="TJ2ZDpxeR_JlbvTuaroh-50" style="edgeStyle=orthogonalEdgeStyle;rounded=0;orthogonalLoop=1;jettySize=auto;html=1;endArrow=circlePlus;endFill=0;" edge="1" parent="1" source="TJ2ZDpxeR_JlbvTuaroh-52">
          <mxGeometry relative="1" as="geometry">
            <mxPoint x="185" y="830" as="targetPoint" />
          </mxGeometry>
        </mxCell>
        <mxCell id="TJ2ZDpxeR_JlbvTuaroh-51" style="edgeStyle=orthogonalEdgeStyle;rounded=0;orthogonalLoop=1;jettySize=auto;html=1;entryX=0;entryY=0.5;entryDx=0;entryDy=0;endArrow=classic;endFill=1;" edge="1" parent="1" source="TJ2ZDpxeR_JlbvTuaroh-52" target="TJ2ZDpxeR_JlbvTuaroh-72">
          <mxGeometry relative="1" as="geometry">
            <Array as="points">
              <mxPoint x="100" y="1100" />
              <mxPoint x="100" y="720" />
            </Array>
          </mxGeometry>
        </mxCell>
        <mxCell id="TJ2ZDpxeR_JlbvTuaroh-52" value="BLooper" style="rounded=0;whiteSpace=wrap;html=1;direction=south;" vertex="1" parent="1">
          <mxGeometry x="140" y="1000" width="90" height="120" as="geometry" />
        </mxCell>
        <mxCell id="TJ2ZDpxeR_JlbvTuaroh-53" style="edgeStyle=orthogonalEdgeStyle;rounded=0;orthogonalLoop=1;jettySize=auto;html=1;entryX=0.5;entryY=0;entryDx=0;entryDy=0;" edge="1" parent="1" source="TJ2ZDpxeR_JlbvTuaroh-56" target="TJ2ZDpxeR_JlbvTuaroh-59">
          <mxGeometry relative="1" as="geometry">
            <mxPoint x="310" y="1220" as="targetPoint" />
            <Array as="points">
              <mxPoint x="430" y="930" />
              <mxPoint x="430" y="930" />
            </Array>
          </mxGeometry>
        </mxCell>
        <mxCell id="TJ2ZDpxeR_JlbvTuaroh-54" style="edgeStyle=orthogonalEdgeStyle;rounded=0;orthogonalLoop=1;jettySize=auto;html=1;entryX=0.5;entryY=1;entryDx=0;entryDy=0;exitX=0.5;exitY=1;exitDx=0;exitDy=0;" edge="1" parent="1" source="TJ2ZDpxeR_JlbvTuaroh-59" target="TJ2ZDpxeR_JlbvTuaroh-70">
          <mxGeometry relative="1" as="geometry">
            <Array as="points">
              <mxPoint x="340" y="930" />
              <mxPoint x="340" y="770" />
            </Array>
          </mxGeometry>
        </mxCell>
        <mxCell id="TJ2ZDpxeR_JlbvTuaroh-55" style="edgeStyle=orthogonalEdgeStyle;rounded=0;orthogonalLoop=1;jettySize=auto;html=1;exitX=0;exitY=0.5;exitDx=0;exitDy=0;endArrow=circlePlus;endFill=0;" edge="1" parent="1" source="TJ2ZDpxeR_JlbvTuaroh-56">
          <mxGeometry relative="1" as="geometry">
            <mxPoint x="490" y="830" as="targetPoint" />
          </mxGeometry>
        </mxCell>
        <mxCell id="TJ2ZDpxeR_JlbvTuaroh-56" value="SubNup" style="rounded=0;whiteSpace=wrap;html=1;direction=south;" vertex="1" parent="1">
          <mxGeometry x="460" y="870" width="60" height="120" as="geometry" />
        </mxCell>
        <mxCell id="TJ2ZDpxeR_JlbvTuaroh-57" style="edgeStyle=orthogonalEdgeStyle;rounded=0;orthogonalLoop=1;jettySize=auto;html=1;entryX=0.25;entryY=1;entryDx=0;entryDy=0;" edge="1" parent="1" source="TJ2ZDpxeR_JlbvTuaroh-59" target="TJ2ZDpxeR_JlbvTuaroh-75">
          <mxGeometry relative="1" as="geometry" />
        </mxCell>
        <mxCell id="TJ2ZDpxeR_JlbvTuaroh-58" style="edgeStyle=orthogonalEdgeStyle;rounded=0;orthogonalLoop=1;jettySize=auto;html=1;endArrow=circlePlus;endFill=0;" edge="1" parent="1" source="TJ2ZDpxeR_JlbvTuaroh-59">
          <mxGeometry relative="1" as="geometry">
            <mxPoint x="390" y="830" as="targetPoint" />
          </mxGeometry>
        </mxCell>
        <mxCell id="TJ2ZDpxeR_JlbvTuaroh-59" value="Chorus" style="rounded=0;whiteSpace=wrap;html=1;direction=south;" vertex="1" parent="1">
          <mxGeometry x="360" y="870" width="60" height="120" as="geometry" />
        </mxCell>
        <mxCell id="TJ2ZDpxeR_JlbvTuaroh-60" style="edgeStyle=orthogonalEdgeStyle;rounded=0;orthogonalLoop=1;jettySize=auto;html=1;entryX=0.75;entryY=0;entryDx=0;entryDy=0;" edge="1" parent="1" source="TJ2ZDpxeR_JlbvTuaroh-62" target="TJ2ZDpxeR_JlbvTuaroh-75">
          <mxGeometry relative="1" as="geometry">
            <Array as="points">
              <mxPoint x="510" y="1085" />
              <mxPoint x="510" y="1085" />
            </Array>
          </mxGeometry>
        </mxCell>
        <mxCell id="TJ2ZDpxeR_JlbvTuaroh-61" style="edgeStyle=orthogonalEdgeStyle;rounded=0;orthogonalLoop=1;jettySize=auto;html=1;endArrow=circlePlus;endFill=0;" edge="1" parent="1" source="TJ2ZDpxeR_JlbvTuaroh-62">
          <mxGeometry relative="1" as="geometry">
            <mxPoint x="590" y="830" as="targetPoint" />
          </mxGeometry>
        </mxCell>
        <mxCell id="TJ2ZDpxeR_JlbvTuaroh-62" value="HComp" style="rounded=0;whiteSpace=wrap;html=1;direction=south;" vertex="1" parent="1">
          <mxGeometry x="560" y="1000" width="60" height="120" as="geometry" />
        </mxCell>
        <mxCell id="TJ2ZDpxeR_JlbvTuaroh-64" style="edgeStyle=orthogonalEdgeStyle;rounded=0;orthogonalLoop=1;jettySize=auto;html=1;endArrow=circlePlus;endFill=0;" edge="1" parent="1" source="TJ2ZDpxeR_JlbvTuaroh-65">
          <mxGeometry relative="1" as="geometry">
            <mxPoint x="690" y="830" as="targetPoint" />
          </mxGeometry>
        </mxCell>
        <mxCell id="TJ2ZDpxeR_JlbvTuaroh-65" value="DMatter" style="rounded=0;whiteSpace=wrap;html=1;direction=south;" vertex="1" parent="1">
          <mxGeometry x="660" y="1000" width="60" height="120" as="geometry" />
        </mxCell>
        <mxCell id="TJ2ZDpxeR_JlbvTuaroh-66" style="edgeStyle=orthogonalEdgeStyle;rounded=0;orthogonalLoop=1;jettySize=auto;html=1;entryX=0.5;entryY=0;entryDx=0;entryDy=0;" edge="1" parent="1" source="TJ2ZDpxeR_JlbvTuaroh-67" target="TJ2ZDpxeR_JlbvTuaroh-49">
          <mxGeometry relative="1" as="geometry">
            <Array as="points">
              <mxPoint x="840" y="1060" />
              <mxPoint x="840" y="1060" />
            </Array>
            <mxPoint x="740" y="1085" as="targetPoint" />
          </mxGeometry>
        </mxCell>
        <mxCell id="TJ2ZDpxeR_JlbvTuaroh-67" value="Volume" style="rounded=0;whiteSpace=wrap;html=1;direction=south;" vertex="1" parent="1">
          <mxGeometry x="860" y="1000" width="60" height="120" as="geometry" />
        </mxCell>
        <mxCell id="TJ2ZDpxeR_JlbvTuaroh-70" value="DiBox" style="rounded=0;whiteSpace=wrap;html=1;direction=south;" vertex="1" parent="1">
          <mxGeometry x="360" y="740" width="60" height="60" as="geometry" />
        </mxCell>
        <mxCell id="TJ2ZDpxeR_JlbvTuaroh-72" value="&amp;nbsp; &amp;nbsp; &amp;nbsp;GCombo" style="shape=internalStorage;whiteSpace=wrap;html=1;backgroundOutline=1;" vertex="1" parent="1">
          <mxGeometry x="160" y="680" width="80" height="80" as="geometry" />
        </mxCell>
        <mxCell id="TJ2ZDpxeR_JlbvTuaroh-73" style="edgeStyle=orthogonalEdgeStyle;rounded=0;orthogonalLoop=1;jettySize=auto;html=1;entryX=0.5;entryY=0;entryDx=0;entryDy=0;" edge="1" parent="1" source="TJ2ZDpxeR_JlbvTuaroh-75" target="TJ2ZDpxeR_JlbvTuaroh-56">
          <mxGeometry relative="1" as="geometry">
            <Array as="points">
              <mxPoint x="540" y="1050" />
              <mxPoint x="540" y="930" />
            </Array>
          </mxGeometry>
        </mxCell>
        <mxCell id="TJ2ZDpxeR_JlbvTuaroh-74" style="edgeStyle=orthogonalEdgeStyle;rounded=0;orthogonalLoop=1;jettySize=auto;html=1;entryX=0.683;entryY=-0.033;entryDx=0;entryDy=0;entryPerimeter=0;" edge="1" parent="1" source="TJ2ZDpxeR_JlbvTuaroh-75" target="TJ2ZDpxeR_JlbvTuaroh-46">
          <mxGeometry relative="1" as="geometry">
            <mxPoint x="360" y="1070" as="targetPoint" />
            <Array as="points">
              <mxPoint x="400" y="1082" />
              <mxPoint x="400" y="1082" />
            </Array>
          </mxGeometry>
        </mxCell>
        <mxCell id="TJ2ZDpxeR_JlbvTuaroh-75" value="Send&lt;br&gt;Return" style="rounded=0;whiteSpace=wrap;html=1;direction=south;" vertex="1" parent="1">
          <mxGeometry x="420" y="1040" width="60" height="60" as="geometry" />
        </mxCell>
        <mxCell id="TJ2ZDpxeR_JlbvTuaroh-76" value="" style="edgeStyle=orthogonalEdgeStyle;rounded=0;orthogonalLoop=1;jettySize=auto;html=1;exitX=0.5;exitY=1;exitDx=0;exitDy=0;" edge="1" parent="1" source="TJ2ZDpxeR_JlbvTuaroh-65" target="TJ2ZDpxeR_JlbvTuaroh-62">
          <mxGeometry relative="1" as="geometry">
            <Array as="points">
              <mxPoint x="650" y="1060" />
              <mxPoint x="650" y="1060" />
            </Array>
            <mxPoint x="680" y="1080" as="sourcePoint" />
          </mxGeometry>
        </mxCell>
      </root>
    </mxGraphModel>
  </diagram>
</mxfile>
